<?xml version="1.0" standalone="no"?>
<!DOCTYPE svg PUBLIC "-//W3C//DTD SVG 20010904//EN"
 "http://www.w3.org/TR/2001/REC-SVG-20010904/DTD/svg10.dtd">
<svg version="1.0" xmlns="http://www.w3.org/2000/svg"
 width="750.000000pt" height="750.000000pt" viewBox="0 0 750.000000 750.000000"
 preserveAspectRatio="xMidYMid meet">
<metadata>
Created by potrace 1.14, written by Peter Selinger 2001-2017
</metadata>
<g transform="translate(0.000000,750.000000) scale(0.100000,-0.100000)"
fill="#000000" stroke="none">
<path d="M12 7492 c-10 -7 -12 -285 -10 -1378 l3 -1369 23 -50 c12 -27 31 -67
42 -87 26 -49 25 -72 -3 -85 -35 -16 -44 -5 -55 62 -6 39 -10 -740 -11 -2262
l-1 -2323 170 0 170 0 0 198 c-1 350 -19 1019 -29 1063 -18 80 -24 210 -27
629 -1 228 -7 447 -13 485 -6 39 -17 117 -25 175 -9 58 -22 146 -31 195 -25
150 -36 271 -42 476 -7 229 -1 257 42 190 15 -24 31 -69 36 -103 16 -96 32
-248 34 -320 2 -37 5 -74 8 -83 9 -21 25 -19 29 5 3 19 5 19 36 -9 17 -16 32
-27 32 -24 0 4 -14 34 -30 69 -18 35 -33 85 -36 116 -16 177 -28 268 -40 306
-14 42 -49 100 -69 114 -5 4 -10 20 -11 35 -1 15 -4 40 -9 56 l-7 27 55 0 c33
0 59 -5 63 -12 5 -7 11 -37 15 -66 4 -30 15 -62 24 -72 9 -10 25 -40 35 -68
11 -27 33 -65 50 -83 17 -19 38 -47 47 -64 9 -16 19 -32 22 -35 39 -32 71 -85
71 -118 0 -20 7 -50 15 -66 23 -43 18 -59 -22 -81 -51 -28 -53 -43 -6 -47 53
-4 56 -31 6 -57 -21 -11 -55 -35 -75 -53 -20 -18 -47 -40 -60 -50 -32 -22 -52
-96 -50 -187 2 -67 5 -78 37 -121 43 -58 69 -73 58 -32 -5 15 -7 72 -6 127 2
90 6 106 34 160 31 60 56 88 99 113 33 20 43 2 21 -38 -41 -75 -54 -108 -71
-185 -22 -98 -34 -216 -26 -243 10 -29 94 -80 162 -98 32 -8 63 -19 68 -23 6
-5 31 -14 56 -21 52 -14 61 -24 53 -61 -5 -29 13 -39 74 -39 36 0 63 -22 63
-50 0 -29 30 -113 47 -132 8 -9 12 -22 8 -27 -6 -10 1 -40 45 -201 40 -149
137 -469 185 -615 45 -138 65 -219 65 -270 0 -42 21 -106 44 -135 26 -31 100
-225 142 -370 20 -69 54 -240 54 -272 0 -5 195 -8 434 -8 l434 0 5 58 c3 31
13 104 22 162 13 81 15 139 10 255 -7 174 -43 593 -51 607 -3 5 -10 107 -15
226 -6 130 -17 259 -29 322 -10 58 -24 132 -30 165 -6 33 -15 69 -19 80 -5 11
-16 48 -25 82 -15 60 -14 93 5 93 5 0 9 11 9 24 0 28 16 36 71 36 23 0 63 12
96 29 198 98 279 143 307 169 64 61 138 78 211 47 19 -8 50 -21 68 -29 38 -16
187 -142 187 -158 0 -12 275 -286 395 -394 207 -185 282 -239 350 -254 70 -15
174 -58 212 -86 17 -13 36 -24 40 -24 12 0 68 -59 81 -85 5 -11 13 -41 17 -68
7 -45 5 -50 -41 -115 -27 -37 -62 -87 -79 -112 -34 -50 -197 -217 -253 -258
-20 -15 -86 -79 -147 -142 -60 -63 -144 -147 -186 -187 -70 -68 -159 -181
-159 -203 0 -6 -6 -10 -12 -10 -7 -1 -26 -19 -43 -40 -16 -22 -39 -42 -50 -46
-34 -11 -50 -54 -20 -54 8 0 19 -9 26 -21 9 -17 7 -25 -12 -45 l-23 -24 1027
0 1027 0 -6 25 c-8 32 15 59 34 39 7 -7 12 -18 12 -24 0 -6 11 1 25 16 14 15
25 30 25 35 0 4 14 4 31 -1 18 -5 35 -7 40 -5 4 3 10 -1 12 -7 3 -7 6 4 6 25
1 33 4 37 27 37 23 0 25 3 22 43 -3 44 12 69 48 79 10 3 27 9 37 13 15 6 17 0
17 -65 0 -61 2 -71 16 -66 9 4 13 2 8 -5 -9 -15 13 -28 37 -22 13 4 16 9 10
17 -7 8 2 12 33 12 31 0 42 -4 39 -13 -3 -7 -1 -13 5 -13 6 0 9 37 9 90 l-1
91 -51 -6 c-73 -8 -85 4 -52 54 17 25 27 54 27 76 0 35 6 39 43 36 14 -2 17 6
17 38 0 40 1 41 38 42 20 1 45 0 56 -1 21 -2 66 37 67 59 0 11 4 9 11 -6 10
-20 19 -23 67 -23 78 0 341 -32 341 -42 0 -4 17 -8 38 -8 42 0 86 -32 60 -43
-8 -4 -5 -8 10 -12 20 -7 22 -13 22 -86 0 -68 -2 -79 -17 -79 -14 -1 -10 -8
15 -30 17 -16 32 -36 32 -43 0 -9 12 -11 39 -9 36 4 39 2 34 -17 -3 -12 -9
-21 -14 -21 -5 0 -9 -10 -9 -23 0 -13 -11 -38 -25 -57 -14 -19 -25 -39 -25
-46 0 -6 -7 -14 -15 -18 -8 -3 -15 -12 -15 -21 0 -21 77 -20 102 2 17 15 18
15 18 0 0 -13 9 -17 35 -17 24 0 35 5 35 14 0 16 34 31 50 21 5 -3 10 -13 10
-21 0 -8 9 -14 20 -14 11 0 20 4 20 9 0 5 6 16 14 23 21 22 79 128 73 134 -8
9 -45 -28 -56 -56 l-10 -25 0 27 c-1 15 3 29 8 32 5 3 14 26 20 51 6 25 15 43
20 41 5 -3 24 24 42 60 19 36 40 70 46 76 7 6 13 18 14 27 0 13 2 12 8 -3 6
-16 11 -12 29 27 12 26 22 60 22 76 0 16 7 34 14 41 8 6 20 27 26 45 8 25 20
37 44 46 21 8 40 25 52 48 10 20 38 63 62 96 24 32 62 97 85 144 38 80 41 91
39 166 -1 101 -37 376 -50 384 -14 9 -33 160 -31 248 2 101 -5 133 -58 278
-36 95 -44 127 -39 158 6 34 3 42 -25 68 -17 16 -34 29 -39 29 -4 0 -15 19
-24 43 -36 86 -52 113 -96 158 -53 55 -84 105 -74 120 13 22 36 116 44 184 5
39 11 85 14 102 3 19 1 33 -4 33 -6 0 -10 -11 -10 -24 0 -45 -12 -88 -21 -74
-7 10 -9 9 -9 -5 0 -9 -4 -25 -9 -35 -5 -9 -15 -42 -21 -72 -16 -68 -29 -97
-46 -104 -7 -3 -36 12 -66 32 -29 21 -80 50 -113 66 -33 16 -86 41 -118 57
-58 29 -246 70 -472 104 -124 18 -342 69 -395 91 -53 23 -153 75 -170 89 -8 7
-29 18 -46 25 -20 9 -37 27 -47 51 -15 35 -19 37 -94 54 -151 32 -253 76 -253
108 0 8 -11 36 -25 63 -14 27 -25 53 -25 57 0 5 -12 34 -26 65 -31 67 -78 183
-123 302 -18 47 -43 112 -56 146 -13 33 -30 85 -39 115 -23 82 -56 182 -67
201 -5 10 -9 35 -9 55 0 45 -20 113 -50 168 -19 35 -21 50 -15 116 8 104 -9
196 -48 256 -29 45 -122 142 -178 188 -184 149 -243 177 -403 190 l-88 8 -31
43 c-42 60 -71 70 -142 49 -32 -9 -75 -28 -97 -42 -30 -21 -41 -24 -51 -14 -9
10 -8 15 7 27 18 13 19 18 7 86 -7 40 -17 105 -23 143 -5 39 -14 74 -19 79 -5
6 -10 26 -10 45 -1 24 -3 28 -6 13 -2 -12 -8 -20 -13 -17 -14 9 -21 -47 -9
-77 9 -22 9 -32 0 -41 -6 -6 -11 -17 -11 -25 0 -12 3 -12 15 -2 12 10 15 7 20
-17 4 -15 10 -36 16 -45 11 -21 12 -88 2 -88 -5 0 -17 21 -27 48 -10 26 -36
67 -56 92 -20 25 -44 60 -54 78 -9 17 -21 32 -27 32 -6 0 -9 6 -6 14 6 16 -18
54 -28 44 -4 -4 -4 -25 0 -48 5 -32 11 -40 23 -36 13 4 27 -15 60 -82 45 -92
63 -124 100 -184 26 -42 20 -63 -30 -92 -15 -10 -28 -21 -28 -27 0 -5 -7 -9
-15 -9 -17 0 -20 16 -5 25 6 3 10 16 10 29 0 12 5 27 12 34 13 13 6 16 -48 26
-29 4 -32 2 -42 -32 -13 -41 -7 -55 13 -28 8 10 19 15 25 11 8 -5 6 -13 -6
-26 -10 -11 -15 -28 -12 -44 4 -17 1 -25 -8 -25 -8 0 -14 -4 -14 -9 0 -4 -18
-26 -41 -47 -23 -22 -46 -45 -53 -52 -6 -8 -23 -27 -38 -44 -16 -17 -28 -36
-28 -42 0 -27 -46 -66 -86 -72 -37 -6 -42 -4 -47 17 -4 13 -7 40 -7 59 1 31 2
33 12 15 28 -50 44 -25 52 83 4 50 -5 54 -22 10 -11 -31 -12 -31 -31 -14 -26
24 -51 14 -51 -20 0 -15 -5 -24 -12 -22 -24 8 -48 87 -48 160 0 72 -11 149
-20 143 -4 -3 -10 -27 -14 -55 -7 -49 -21 -65 -32 -35 -4 8 -11 15 -16 15 -12
0 -2 -118 11 -135 5 -5 14 -34 22 -62 7 -29 16 -53 20 -53 4 0 6 8 4 18 -10
49 -12 102 -4 102 5 0 9 -16 9 -36 0 -19 7 -42 15 -50 8 -9 15 -28 15 -44 0
-16 5 -32 10 -35 6 -3 10 -16 10 -28 0 -12 9 -37 20 -55 25 -41 25 -59 0 -74
-11 -7 -20 -17 -20 -22 0 -12 -153 -315 -184 -364 -14 -23 -26 -47 -26 -53 0
-23 -61 -118 -80 -124 -10 -3 -21 -12 -24 -20 -3 -8 -15 -15 -26 -15 -11 0
-20 -3 -20 -8 0 -4 -17 -16 -37 -27 -21 -10 -47 -27 -59 -37 -20 -17 -22 -17
-65 10 -59 38 -79 60 -73 77 9 23 43 18 81 -11 44 -34 63 -21 24 17 -17 16
-35 29 -40 29 -16 0 -22 33 -8 42 8 4 20 21 27 38 7 16 18 30 24 30 7 0 23 11
36 25 13 14 18 25 11 25 -7 0 -47 -33 -89 -73 -42 -40 -93 -84 -112 -97 -32
-23 -46 -35 -91 -75 -8 -8 -31 -21 -51 -30 -20 -8 -39 -19 -43 -25 -3 -5 -14
-10 -24 -10 -10 0 -34 -11 -54 -24 -19 -13 -61 -29 -91 -36 -61 -13 -55 -15
-152 51 -50 34 -229 219 -274 284 -19 28 -39 52 -43 53 -9 4 -76 137 -97 192
-7 19 -27 53 -44 75 -37 47 -63 102 -71 153 -4 20 -15 56 -26 79 -25 57 -24
69 9 102 21 21 26 34 21 52 -4 13 -7 34 -8 47 -1 21 0 22 15 8 20 -20 18 -20
48 7 13 12 45 33 70 45 31 16 46 30 46 43 0 23 -13 29 -83 38 -64 7 -67 24
-12 55 44 25 52 49 18 54 -25 4 -32 22 -9 22 9 0 12 7 9 20 -3 12 1 28 9 38
26 31 69 162 53 162 -2 0 -16 -26 -31 -57 -53 -118 -78 -163 -87 -163 -6 0 -8
28 -5 70 3 39 3 70 -1 70 -8 0 -26 -45 -41 -105 -7 -27 -17 -55 -21 -60 -4 -6
-13 -33 -19 -60 -6 -28 -22 -74 -36 -103 -25 -53 -26 -63 -24 -221 l1 -54 -21
26 c-13 17 -24 48 -27 82 -4 37 -10 55 -19 55 -13 0 -20 -42 -15 -90 1 -10 -6
-6 -19 9 -19 22 -20 32 -14 90 4 36 12 69 18 73 8 5 7 11 -2 20 -10 10 -14 10
-21 0 -8 -14 -32 61 -50 158 -5 30 -17 93 -26 140 -9 47 -15 101 -14 122 2 20
-2 42 -8 50 -6 7 -14 48 -18 91 l-7 79 31 27 c40 35 43 65 5 51 -35 -14 -34
-15 -34 30 0 23 -7 51 -15 63 -17 26 -50 306 -38 318 5 5 26 -7 48 -26 22 -19
45 -35 51 -35 7 0 14 -7 18 -15 7 -20 22 -19 30 2 4 10 -1 23 -14 35 -14 13
-19 26 -15 39 5 15 1 22 -14 26 -16 4 -20 11 -15 25 5 17 3 18 -14 7 -27 -17
-46 -7 -80 40 -23 32 -31 56 -36 113 -4 40 -14 84 -22 100 -8 15 -14 37 -14
49 0 12 -8 31 -17 41 -10 11 -18 36 -19 56 -1 20 -7 60 -12 87 -6 28 -11 82
-11 121 -1 104 -46 179 -165 279 -91 76 -111 91 -149 114 -21 13 -43 28 -50
35 -27 27 -194 98 -251 107 -34 6 -86 14 -117 19 -67 12 -179 13 -197 2z
m1488 -2275 c0 -16 -37 -39 -45 -27 -3 5 -3 20 1 34 5 21 9 24 25 15 10 -5 19
-15 19 -22z m3070 -327 c0 -5 -4 -10 -10 -10 -5 0 -10 5 -10 10 0 6 5 10 10
10 6 0 10 -4 10 -10z m-2920 -626 c0 -7 11 -25 25 -40 14 -15 25 -33 25 -40 0
-13 -7 -12 -47 2 -10 4 -55 6 -100 5 -69 -2 -83 0 -83 13 0 27 50 33 103 11
15 -6 16 -4 7 20 -9 23 -7 31 12 49 21 20 25 21 41 8 9 -8 17 -21 17 -28z
m-306 -130 c20 -8 21 -54 2 -54 -7 0 -20 -8 -27 -17 -15 -18 -15 -18 35 3 19
7 23 -10 36 -143 13 -125 6 -153 -35 -153 -40 0 -61 44 -74 152 -6 53 -11 124
-11 157 0 61 0 61 29 61 16 0 36 -3 45 -6z m181 -69 c11 -74 19 -95 37 -95 7
0 8 22 4 68 -8 88 -3 95 60 83 27 -5 68 -7 91 -4 23 3 53 3 67 -1 13 -3 75
-58 138 -121 62 -63 118 -119 123 -124 116 -107 145 -136 145 -148 0 -8 11
-29 25 -47 14 -18 25 -37 25 -42 0 -5 13 -15 28 -22 16 -7 46 -28 68 -48 63
-57 89 -67 130 -52 49 18 66 -1 54 -62 -7 -35 -21 -59 -60 -100 -69 -75 -90
-99 -90 -108 0 -4 -12 -20 -26 -36 -21 -22 -29 -25 -35 -14 -6 9 -9 2 -10 -22
-4 -77 -8 -102 -20 -116 -18 -21 -78 -51 -120 -59 l-34 -6 -13 53 c-6 30 -12
67 -12 84 0 36 -20 63 -152 206 -51 55 -102 111 -113 123 -36 39 -124 173
-130 198 -8 30 -74 85 -118 98 -17 5 -50 9 -73 9 -23 0 -46 6 -52 13 -30 36
-46 329 -20 355 7 7 26 12 43 10 28 -3 30 -5 40 -73z m915 -19 c0 -8 -7 -16
-15 -20 -10 -4 -15 1 -15 14 0 11 7 20 15 20 8 0 15 -6 15 -14z m27 -183 c-1
-114 1 -147 11 -145 27 5 11 -15 -46 -55 -21 -14 -24 -14 -56 11 -19 14 -38
35 -41 46 -4 11 -10 18 -15 15 -16 -10 -58 141 -43 156 4 4 31 19 58 34 28 15
55 34 62 43 12 14 51 39 65 41 5 1 7 -65 5 -146z m36 -234 c-13 -13 -48 -16
-48 -4 0 6 5 10 12 10 6 0 15 3 19 7 4 4 11 5 16 2 6 -4 6 -10 1 -15z m-2376
-25 c-3 -3 -12 -4 -19 -1 -8 3 -5 6 6 6 11 1 17 -2 13 -5z m2233 -454 c0 -5
-5 -10 -11 -10 -5 0 -7 5 -4 10 3 6 8 10 11 10 2 0 4 -4 4 -10z m120 -80 c0
-5 -2 -10 -4 -10 -3 0 -8 5 -11 10 -3 6 -1 10 4 10 6 0 11 -4 11 -10z m-85
-40 c3 -5 1 -10 -4 -10 -6 0 -11 5 -11 10 0 6 2 10 4 10 3 0 8 -4 11 -10z
m-60 -50 c4 -6 -7 -10 -25 -10 -18 0 -29 4 -25 10 3 6 15 10 25 10 10 0 22 -4
25 -10z m-1620 -179 c3 -5 1 -12 -5 -16 -5 -3 -10 1 -10 9 0 18 6 21 15 7z
m6589 -1013 c-9 -14 -24 2 -24 25 1 21 1 21 15 3 8 -10 12 -23 9 -28z m-2904
-703 c0 -8 -4 -15 -9 -15 -5 0 -16 -18 -25 -40 -9 -22 -22 -40 -29 -40 -7 0
-23 -13 -35 -30 -13 -16 -18 -30 -12 -30 5 0 10 -4 10 -10 0 -24 -29 -7 -35
21 -6 28 -1 36 49 87 31 31 56 60 56 64 0 4 7 8 15 8 8 0 15 -7 15 -15z m-146
-166 c-9 -15 -34 -10 -28 5 3 8 12 12 20 9 8 -3 11 -9 8 -14z m-414 -388 c-9
-19 -61 -61 -74 -61 -3 0 -6 6 -6 14 0 15 57 58 88 65 1 1 -2 -8 -8 -18z
m2860 -191 c0 -29 -4 -40 -15 -40 -11 0 -15 11 -15 40 0 29 4 40 15 40 11 0
15 -11 15 -40z m-1749 -137 c-8 -15 -10 -15 -11 -2 0 17 10 32 18 25 2 -3 -1
-13 -7 -23z m1805 6 c10 -17 -13 -36 -27 -22 -12 12 -4 33 11 33 5 0 12 -5 16
-11z m-1809 -61 c-3 -8 -6 -5 -6 6 -1 11 2 17 5 13 3 -3 4 -12 1 -19z m94 -11
c-10 -9 -11 -8 -5 6 3 10 9 15 12 12 3 -3 0 -11 -7 -18z m300 -87 c13 -7 19
-7 19 0 0 5 7 10 15 10 21 0 19 -13 -6 -28 -15 -10 -24 -11 -32 -3 -6 6 -21
11 -33 11 -13 0 -26 5 -29 10 -8 13 41 13 66 0z"/>
<path d="M2340 3495 c-1 -5 -4 -36 -6 -67 -4 -49 -1 -60 20 -83 18 -19 25 -22
29 -11 3 7 2 17 -3 22 -5 5 -15 41 -23 79 -9 39 -16 66 -17 60z"/>
<path d="M2235 3414 c-9 -78 0 -169 19 -195 12 -17 15 -18 26 -4 10 12 10 36
-3 125 -9 61 -14 117 -11 125 4 9 0 15 -9 15 -12 0 -17 -17 -22 -66z"/>
<path d="M2183 7088 c-19 -24 -25 -98 -9 -114 13 -13 16 -9 26 28 6 24 13 50
16 59 6 23 -20 44 -33 27z"/>
<path d="M2635 6840 c3 -5 10 -10 16 -10 5 0 9 5 9 10 0 6 -7 10 -16 10 -8 0
-12 -4 -9 -10z"/>
<path d="M1832 6794 c-14 -15 -7 -17 22 -5 15 6 16 9 5 13 -8 3 -20 -1 -27 -8z"/>
<path d="M4286 6781 c5 -5 20 -12 33 -16 18 -5 22 -4 16 6 -6 9 -2 11 16 6 13
-4 31 -7 39 -7 13 0 13 -1 0 -10 -15 -9 -13 -11 12 -14 19 -2 31 -65 17 -83
-18 -21 -78 -49 -124 -58 -52 -9 -58 -14 -44 -31 16 -19 84 -18 122 3 63 35
87 64 87 105 0 65 -62 108 -153 108 -19 0 -27 -4 -21 -9z"/>
<path d="M1077 6648 c-7 -4 12 -8 41 -8 28 0 52 2 52 4 0 8 -81 11 -93 4z"/>
<path d="M3187 6649 c7 -7 15 -10 18 -7 3 3 -2 9 -12 12 -14 6 -15 5 -6 -5z"/>
<path d="M1100 6615 c0 -20 80 -53 188 -77 82 -18 97 -19 119 -7 l26 14 -29 5
c-20 4 -28 11 -26 23 2 11 -6 18 -25 22 -15 3 -44 10 -63 15 -20 5 -48 6 -64
2 -35 -9 -98 -3 -90 9 3 5 -4 9 -15 9 -12 0 -21 -7 -21 -15z m143 -22 c-7 -2
-19 -2 -25 0 -7 3 -2 5 12 5 14 0 19 -2 13 -5z"/>
<path d="M4454 6439 c-15 -17 -19 -69 -6 -69 5 0 17 9 28 21 15 17 26 20 63
15 52 -6 54 -8 54 -41 0 -50 -81 -77 -103 -35 -6 11 -20 20 -30 20 -25 0 -25
-2 0 -42 25 -41 42 -47 99 -35 38 7 49 15 64 43 24 49 21 76 -12 108 -25 24
-39 29 -86 30 -40 1 -61 -4 -71 -15z"/>
<path d="M2367 6443 c-10 -3 -16 -10 -14 -16 4 -12 47 -13 76 -2 13 5 14 7 1
15 -16 10 -33 11 -63 3z"/>
<path d="M2320 6420 c0 -5 5 -10 11 -10 5 0 7 5 4 10 -3 6 -8 10 -11 10 -2 0
-4 -4 -4 -10z"/>
<path d="M1320 6410 c-8 -4 -35 -16 -60 -26 -47 -18 -86 -45 -59 -40 31 5 119
41 119 48 0 5 6 8 14 8 8 0 18 5 21 10 7 12 -14 12 -35 0z"/>
<path d="M3440 6398 c0 -10 122 -128 133 -128 4 0 7 -7 7 -15 0 -8 8 -15 18
-15 10 0 24 -6 31 -12 27 -25 6 10 -34 58 -60 72 -104 111 -131 117 -13 2 -24
0 -24 -5z"/>
<path d="M1327 6324 c-3 -4 -21 -10 -39 -15 -28 -7 -26 -8 15 -4 57 6 99 24
56 25 -14 0 -28 -3 -32 -6z"/>
<path d="M1210 6290 c0 -5 4 -10 9 -10 6 0 13 5 16 10 3 6 -1 10 -9 10 -9 0
-16 -4 -16 -10z"/>
<path d="M3640 6037 c0 -4 6 -10 13 -13 8 -3 13 -27 13 -72 1 -42 7 -79 17
-99 10 -18 17 -45 17 -62 0 -16 6 -31 13 -34 8 -2 11 -25 10 -75 -1 -40 2 -72
6 -72 5 0 12 -19 17 -42 l8 -43 4 60 c2 33 -2 83 -9 111 -12 54 -6 124 12 124
14 0 2 112 -13 121 -7 4 -19 2 -27 -4 -12 -10 -13 -8 -9 15 3 17 0 32 -8 39
-8 7 -11 21 -8 35 5 21 3 23 -25 21 -17 -1 -31 -6 -31 -10z"/>
<path d="M1490 5910 c0 -5 5 -10 11 -10 5 0 7 5 4 10 -3 6 -8 10 -11 10 -2 0
-4 -4 -4 -10z"/>
<path d="M3780 5880 c0 -5 5 -10 11 -10 5 0 7 5 4 10 -3 6 -8 10 -11 10 -2 0
-4 -4 -4 -10z"/>
<path d="M2260 5830 c0 -5 5 -10 11 -10 5 0 7 5 4 10 -3 6 -8 10 -11 10 -2 0
-4 -4 -4 -10z"/>
<path d="M2270 5801 c0 -4 9 -20 20 -34 11 -14 20 -28 20 -32 0 -4 16 -29 35
-55 19 -26 35 -52 35 -58 0 -6 8 -13 18 -17 11 -3 24 -17 30 -30 11 -25 23
-31 35 -19 7 7 -13 54 -23 54 -3 0 -39 45 -80 100 -67 91 -90 115 -90 91z"/>
<path d="M2430 5737 c0 -9 6 -20 14 -24 7 -4 16 -15 19 -23 4 -12 6 -11 6 3 1
10 -8 27 -19 39 -16 18 -20 19 -20 5z"/>
<path d="M2480 5682 c0 -7 7 -15 15 -18 8 -4 12 -10 9 -15 -3 -5 9 -22 26 -39
16 -16 30 -33 30 -38 0 -6 11 -12 25 -14 31 -6 31 -5 -4 31 -16 16 -30 33 -33
38 -7 18 -68 66 -68 55z"/>
<path d="M1656 5621 c-4 -7 -5 -15 -2 -18 9 -9 19 4 14 18 -4 11 -6 11 -12 0z"/>
<path d="M2132 5588 c3 -7 -3 -19 -13 -28 -9 -8 -22 -44 -29 -80 -13 -73 -47
-153 -61 -144 -5 3 -9 13 -9 22 0 10 -3 13 -10 6 -9 -9 4 -136 16 -156 6 -10
36 62 56 137 6 22 15 44 19 50 5 5 9 22 9 37 0 45 48 79 113 79 9 0 17 4 17 8
0 5 10 12 23 16 20 6 20 8 3 12 -10 3 -23 0 -29 -6 -6 -6 -30 -11 -54 -11
l-43 0 4 35 c3 20 0 35 -6 35 -5 0 -8 -6 -6 -12z"/>
<path d="M2310 5476 c-25 -13 -52 -31 -59 -40 -7 -9 -19 -16 -25 -16 -13 0
-76 -52 -76 -64 0 -27 61 -48 75 -26 8 13 45 -11 45 -30 0 -9 3 -11 8 -5 10
15 102 36 129 31 18 -4 24 1 29 22 8 32 20 42 52 42 14 0 29 11 41 30 10 16
20 27 23 24 8 -7 90 5 109 16 7 5 10 12 7 16 -6 5 -75 7 -133 2 -5 0 -23 2
-40 6 -85 18 -140 15 -185 -8z"/>
<path d="M2797 5464 c3 -22 9 -43 13 -47 4 -5 4 10 0 33 -10 53 -21 65 -13 14z"/>
<path d="M3277 5455 c7 -22 11 -27 84 -107 50 -56 80 -76 60 -40 -19 32 -151
167 -144 147z"/>
<path d="M3511 5395 c0 -16 4 -37 9 -45 8 -12 10 -10 9 10 0 14 -4 34 -9 45
-7 17 -9 16 -9 -10z"/>
<path d="M2966 5274 c-9 -38 -20 -84 -24 -103 -7 -34 -8 -33 -35 45 -15 43
-25 68 -23 54 3 -14 8 -74 12 -133 7 -102 16 -125 34 -86 4 8 14 30 23 49 9
19 22 66 28 103 8 51 15 67 25 63 18 -7 18 -7 -5 39 l-18 38 -17 -69z"/>
<path d="M2860 5310 c0 -5 5 -10 10 -10 6 0 10 5 10 10 0 6 -4 10 -10 10 -5 0
-10 -4 -10 -10z"/>
<path d="M3460 5216 c0 -35 -3 -73 -6 -83 -4 -14 -4 -15 4 -3 13 20 22 150 11
150 -5 0 -9 -29 -9 -64z"/>
<path d="M2353 5245 c-17 -14 -17 -14 2 -15 11 0 26 4 33 9 11 7 11 9 -1 14
-8 3 -23 -1 -34 -8z"/>
<path d="M3276 5244 c-3 -9 -6 -25 -6 -35 0 -11 -4 -17 -10 -14 -12 7 -13 -5
-2 -20 24 -33 62 28 41 66 -12 23 -15 24 -23 3z"/>
<path d="M3170 5230 c0 -11 4 -20 9 -20 5 0 7 9 4 20 -3 11 -7 20 -9 20 -2 0
-4 -9 -4 -20z"/>
<path d="M1675 5181 c-7 -12 12 -24 25 -16 11 7 4 25 -10 25 -5 0 -11 -4 -15
-9z"/>
<path d="M3190 5183 c0 -4 5 -15 10 -23 8 -13 10 -13 10 2 0 9 -4 20 -10 23
-5 3 -10 3 -10 -2z"/>
<path d="M3261 5129 c0 -13 4 -33 9 -44 6 -15 8 -10 6 18 -4 42 -16 64 -15 26z"/>
<path d="M6336 4937 c-5 -9 -5 -29 0 -45 7 -25 8 -26 11 -4 3 12 3 32 0 45 -3
19 -4 20 -11 4z"/>
<path d="M3097 4843 c-11 -10 -8 -18 12 -42 18 -21 19 -21 24 -2 5 21 -24 56
-36 44z"/>
<path d="M7387 2813 c-4 -3 -7 -18 -7 -32 0 -27 -20 -104 -71 -271 -34 -111
-47 -186 -30 -176 6 4 11 14 11 22 0 8 4 14 9 14 10 0 50 89 84 190 20 58 25
95 26 168 0 85 -5 103 -22 85z"/>
<path d="M2962 1820 c15 -24 33 -27 24 -4 -3 9 -6 18 -6 20 0 2 -7 4 -15 4
-13 0 -13 -3 -3 -20z"/>
<path d="M2789 1659 c-8 -5 -12 -9 -9 -10 43 -8 100 -8 100 0 0 6 -3 11 -7 12
-5 0 -22 2 -39 3 -18 2 -38 0 -45 -5z"/>
<path d="M2879 1633 c-1 -5 0 -16 1 -26 2 -25 -41 -66 -108 -103 -68 -37 -75
-51 -24 -48 81 4 143 59 150 134 3 33 1 50 -7 50 -6 0 -12 -3 -12 -7z"/>
<path d="M3015 1426 c-17 -12 -15 -14 21 -21 21 -5 44 -8 50 -7 18 3 25 -40
11 -70 -12 -28 -17 -29 -95 -30 -34 0 -41 -3 -32 -13 6 -7 30 -15 53 -17 68
-8 122 30 125 87 2 35 -4 45 -38 68 -30 20 -69 22 -95 3z"/>
<path d="M2930 1350 c0 -5 5 -10 11 -10 5 0 7 5 4 10 -3 6 -8 10 -11 10 -2 0
-4 -4 -4 -10z"/>
<path d="M6027 504 c-34 -29 -28 -44 19 -44 25 0 34 4 34 16 0 15 19 16 200
12 163 -4 200 -2 200 9 0 10 -41 13 -209 13 -119 0 -211 4 -213 9 -1 5 -16 -1
-31 -15z"/>
<path d="M5920 470 c0 -17 6 -20 38 -19 21 1 29 3 17 6 -11 3 -24 11 -28 19
-12 20 -27 17 -27 -6z"/>
<path d="M6313 452 l77 -3 0 -34 c0 -56 8 -65 54 -63 40 1 40 1 6 5 -38 5 -50
16 -50 51 0 21 4 22 80 22 64 0 80 3 80 15 0 12 -25 14 -162 13 -90 -1 -128
-4 -85 -6z"/>
<path d="M7031 254 c0 -11 3 -14 6 -6 3 7 2 16 -1 19 -3 4 -6 -2 -5 -13z"/>
<path d="M6083 220 c0 -25 2 -35 4 -22 2 12 2 32 0 45 -2 12 -4 2 -4 -23z"/>
<path d="M6480 180 c0 -22 5 -40 10 -40 6 0 10 18 10 40 0 22 -4 40 -10 40 -5
0 -10 -18 -10 -40z"/>
<path d="M5930 130 c0 -6 32 -10 75 -10 43 0 75 4 75 10 0 6 -32 10 -75 10
-43 0 -75 -4 -75 -10z"/>
<path d="M6628 133 c7 -3 16 -2 19 1 4 3 -2 6 -13 5 -11 0 -14 -3 -6 -6z"/>
</g>
</svg>
